<svg xmlns="http://www.w3.org/2000/svg" width="16" height="16" viewBox="0 0 16 16">
  <path id="icon-search" d="M15.128,16a.88.88,0,0,1-.629-.258l-3.974-3.991A6.8,6.8,0,0,1,6.692,12.92,6.586,6.586,0,0,1,0,6.46,6.586,6.586,0,0,1,6.692,0a6.586,6.586,0,0,1,6.691,6.46,6.326,6.326,0,0,1-1.57,4.153l3.944,3.961a.823.823,0,0,1-.023,1.192A.888.888,0,0,1,15.128,16ZM6.692,1.685A4.869,4.869,0,0,0,1.745,6.46a4.868,4.868,0,0,0,4.946,4.774A4.868,4.868,0,0,0,11.637,6.46,4.868,4.868,0,0,0,6.692,1.685Z" fill="#4a36dd"/>
</svg>
